<?xml version="1.0" encoding="UTF-8" standalone="no"?>
<!DOCTYPE svg PUBLIC "-//W3C//DTD SVG 1.1//EN" "http://www.w3.org/Graphics/SVG/1.1/DTD/svg11.dtd">
<svg width="100%" height="100%" viewBox="0 0 841 121" version="1.1" xmlns="http://www.w3.org/2000/svg" xmlns:xlink="http://www.w3.org/1999/xlink" xml:space="preserve" xmlns:serif="http://www.serif.com/" style="fill-rule:evenodd;clip-rule:evenodd;stroke-linecap:round;stroke-linejoin:round;stroke-miterlimit:10;">
    <g id="divider" transform="matrix(0.939603,0,0,0.736308,-707.521272,-586.837608)">
        <rect x="753" y="797" width="894.088" height="163.069" style="fill:none;"/>
        <g transform="matrix(4.434496,0,0,5.658862,1223.930134,916.26162)">
            <path d="M0,1.433C-0.908,0.516 -2.118,0.827 -2.765,1.595C-3.321,2.255 -4.086,4.379 -2.193,5.745C1.171,8.171 6.094,3.414 1.707,-1.193C-1.77,-4.845 -8.657,-6.738 -15.342,-6.738L-104.517,-6.738" style="fill:none;fill-rule:nonzero;stroke:rgb(35,31,32);stroke-width:1px;"/>
        </g>
        <g transform="matrix(4.434496,0,0,5.658862,1177.81404,840.00392)">
            <path d="M0,-1.432C0.907,-0.515 2.118,-0.826 2.765,-1.594C3.32,-2.254 4.086,-4.378 2.193,-5.744C-1.172,-8.17 -6.094,-3.413 -1.707,1.194C1.77,4.846 8.656,6.738 15.342,6.738L104.517,6.738" style="fill:none;fill-rule:nonzero;stroke:rgb(35,31,32);stroke-width:1px;"/>
        </g>
    </g>
</svg>
